<?xml version="1.0" encoding="UTF-8"?>
<svg id="text_logo" data-name="text logo" xmlns="http://www.w3.org/2000/svg" xmlns:xlink="http://www.w3.org/1999/xlink" viewBox="0 0 985.34 1110.67">
  <defs>
    <style>
      .cls-1 {
        fill: url(#linear-gradient-2);
      }

      .cls-2, .cls-3, .cls-4, .cls-5 {
        fill: #fff;
      }

      .cls-6 {
        opacity: .24;
      }

      .cls-7 {
        fill: url(#linear-gradient-6);
      }

      .cls-3 {
        opacity: .17;
      }

      .cls-8 {
        fill: url(#linear-gradient-10);
      }

      .cls-9 {
        fill: url(#linear-gradient-5);
      }

      .cls-4 {
        opacity: .08;
      }

      .cls-5 {
        opacity: .15;
      }

      .cls-10 {
        fill: url(#linear-gradient-7);
      }

      .cls-11 {
        fill: url(#linear-gradient-9);
      }

      .cls-12 {
        fill: url(#linear-gradient-3);
      }

      .cls-13 {
        fill: url(#linear-gradient);
      }

      .cls-14 {
        fill: url(#linear-gradient-4);
      }

      .cls-15 {
        fill: url(#linear-gradient-8);
      }
    </style>
    <linearGradient id="linear-gradient" x1="299.4" y1="184.61" x2="813.94" y2="184.61" gradientUnits="userSpaceOnUse">
      <stop offset="0" stop-color="#fed52e"/>
      <stop offset="1" stop-color="#fe364f"/>
    </linearGradient>
    <linearGradient id="linear-gradient-2" x1="146.59" y1="125.78" x2="190.17" y2="125.78" gradientUnits="userSpaceOnUse">
      <stop offset="0" stop-color="#f54ee1"/>
      <stop offset="1" stop-color="#b84afc"/>
    </linearGradient>
    <linearGradient id="linear-gradient-3" x1="201.16" y1="120" x2="201.16" y2="119.79" xlink:href="#linear-gradient-2"/>
    <linearGradient id="linear-gradient-4" x1="398.63" y1="734.56" x2="398.63" y2="114.73" gradientUnits="userSpaceOnUse">
      <stop offset="0" stop-color="#9e15f9"/>
      <stop offset="1" stop-color="#e667fb"/>
    </linearGradient>
    <linearGradient id="linear-gradient-5" x1="153.17" y1="32" x2="217.17" y2="32" xlink:href="#linear-gradient-2"/>
    <linearGradient id="linear-gradient-6" x1="90.17" y1="353.5" x2="127.17" y2="353.5" xlink:href="#linear-gradient-2"/>
    <linearGradient id="linear-gradient-7" x1="721.97" y1="763.64" x2="724.17" y2="763.64" gradientUnits="userSpaceOnUse">
      <stop offset="0" stop-color="#00e5e9"/>
      <stop offset=".12" stop-color="#0ed7ea"/>
      <stop offset=".36" stop-color="#34b4ef"/>
      <stop offset=".69" stop-color="#717bf6"/>
      <stop offset="1" stop-color="#b33fff"/>
    </linearGradient>
    <linearGradient id="linear-gradient-8" x1="308.24" y1="591.68" x2="813.94" y2="591.68" gradientUnits="userSpaceOnUse">
      <stop offset="0" stop-color="#53a211"/>
      <stop offset="1" stop-color="#aad64a"/>
    </linearGradient>
    <linearGradient id="linear-gradient-9" x1="735.17" y1="780.56" x2="814.66" y2="780.56" xlink:href="#linear-gradient-8"/>
    <linearGradient id="linear-gradient-10" x1="869.67" y1="713" x2="869.67" y2="676" xlink:href="#linear-gradient-8"/>
  </defs>
  <g>
    <path class="cls-13" d="m813.94,307.78h-167.98l-1.75-2.85c-46.82-111.72-157.22-190.2-285.95-190.2-20.13,0-39.81,1.91-58.86,5.58,3.62-2.49,7.3-4.9,11.02-7.25,51.89-32.69,113.34-51.62,179.19-51.62,154.63,0,284.89,104.28,324.33,246.34Z"/>
    <path class="cls-5" d="m813.94,307.78h-91.97S645.18,19.46,310.42,113.06c51.89-32.69,113.34-51.62,179.19-51.62,154.63,0,284.89,104.28,324.33,246.34Z"/>
  </g>
  <g>
    <path class="cls-1" d="m190.17,120h-41s-18,26,41,0Z"/>
    <g>
      <path class="cls-12" d="m198.17,120l5.97-.19c-3.58-.09-5.97.19-5.97.19Z"/>
      <path class="cls-14" d="m309.18,398c0,7.48.46,14.85,1.34,22.08-1.5,11.28-2.28,22.79-2.28,34.48,0,143.28,116.15,259.43,259.44,259.43h.52c6.65-.01,7.8,9.45,1.34,11.02-25.62,6.24-52.39,9.55-79.93,9.55-22.96,0-45.39-2.3-67.06-6.68-85.7-17.33-159.59-67.22-208.21-136.2l-.07-.08c-38.57-54.75-61.22-121.53-61.22-193.6s22.53-138.47,60.9-193.13c46.77-76.54,6.36-84.63-9.81-85.06l122.03-3.81-.54.44c10.73-1.12,21.61-1.71,32.63-1.71,80.18,0,153.25,30.45,208.27,80.41,33.32,30.25,60.02,67.66,77.68,109.79-31.58-52.35-89-87.36-154.6-87.36-11.93,0-23.58,1.16-34.87,3.36-20.11,3.94-39.02,11.22-56.13,21.23-53.5,31.31-89.43,89.38-89.43,155.84Z"/>
    </g>
    <path class="cls-3" d="m639.5,297.54c-32.39-48.23-87.43-79.97-149.89-79.97-11.93,0-23.58,1.16-34.87,3.36-20.11,3.94-39.02,11.22-56.13,21.23-2.63.25-222.88,22.16-184.27,349.52l-.07-.08c-38.57-54.75-61.22-121.53-61.22-193.6,0-51.39,11.52-100.09,32.12-143.65,328.4-153.47,432.63.22,454.33,43.19Z"/>
    <circle class="cls-9" cx="185.17" cy="32" r="32"/>
    <circle class="cls-7" cx="108.67" cy="353.5" r="18.5"/>
    <path class="cls-6" d="m644.21,304.93c-1.51-2.51-3.08-4.97-4.71-7.39-21.7-42.97-125.93-196.66-454.33-43.19,8.2-17.36,17.85-33.91,28.78-49.48,46.77-76.54,6.36-84.63-9.81-85.06l122.03-3.81-.54.44c10.73-1.12,21.61-1.71,32.63-1.71,80.18,0,153.25,30.45,208.27,80.41,33.32,30.25,60.02,67.66,77.68,109.79Z"/>
  </g>
  <g>
    <g>
      <path class="cls-10" d="m721.97,763.28c1.4.48,2.2.72,2.2.72l-2.2-.72Z"/>
      <path class="cls-15" d="m813.94,488.22c-9.79,35.26-25.18,68.2-45.15,97.79-19.96,29.59-44.51,55.84-72.62,77.72-4.16,4.24-7.73,8.33-10.76,12.27-43.33,56.37,23.35,82.74,36.56,87.28l-150.8-49.28.13-.05c-1.21.02-2.41.04-3.62.04-83.5,0-157.79-39.44-205.23-100.72-32.21-41.57-52.06-93.2-54.04-149.38-.11-3.09-.17-6.21-.17-9.33,0-9.56.52-18.99,1.54-28.28.06-.68.14-1.36.22-2.04.16-1.39.34-2.78.52-4.16,10.89,89.24,86.92,158.35,179.09,158.35,33.4,0,64.67-9.07,91.49-24.88,26.83-15.81,49.2-38.37,64.8-65.33h168.04Z"/>
    </g>
    <path class="cls-11" d="m735.17,769l75,28s32-48-75-28Z"/>
    <path class="cls-4" d="m813.94,488.22c-9.79,35.26-25.18,68.2-45.15,97.79-19.96,29.59-44.51,55.84-72.62,77.72-63.68,64.84,11.67,94.69,25.8,99.55l-150.8-49.28.13-.05c-1.21.02-2.41.04-3.62.04-83.5,0-157.79-39.44-205.23-100.72,2.56,1.4,221.53,120,366.66-125.05h84.83Z"/>
    <circle class="cls-8" cx="869.67" cy="694.5" r="18.5"/>
    <path class="cls-6" d="m571.17,714l.13-.05c-1.21.02-2.41.04-3.62.04-83.5,0-157.79-39.44-205.23-100.72-32.21-41.57-52.06-93.2-54.04-149.38l1.33-33.12c.27,46.31,24,226.94,375.67,245.23-43.33,56.37,23.35,82.74,36.56,87.28l-150.8-49.28Z"/>
  </g>
  <g>
    <g>
      <path class="cls-2" d="m11.12,1023.24h39.88v8.74H0v-111.05h11.12v102.32Z"/>
      <path class="cls-2" d="m84.84,1025.86c-8.37-4.82-14.96-11.54-19.78-20.18-4.82-8.63-7.23-18.4-7.23-29.31s2.41-20.68,7.23-29.31c4.82-8.63,11.41-15.36,19.78-20.18,8.37-4.82,17.69-7.23,27.96-7.23s19.75,2.41,28.12,7.23c8.37,4.82,14.93,11.55,19.7,20.18,4.77,8.63,7.15,18.4,7.15,29.31s-2.38,20.68-7.15,29.31c-4.77,8.63-11.33,15.36-19.7,20.18-8.37,4.82-17.74,7.23-28.12,7.23s-19.6-2.41-27.96-7.23Zm50.21-8.5c6.57-3.81,11.76-9.27,15.57-16.36,3.81-7.09,5.72-15.3,5.72-24.63s-1.91-17.5-5.72-24.55c-3.81-7.04-9-12.47-15.57-16.29-6.57-3.81-13.98-5.72-22.24-5.72s-15.68,1.91-22.24,5.72c-6.57,3.81-11.76,9.24-15.57,16.29-3.81,7.04-5.72,15.23-5.72,24.55s1.91,17.53,5.72,24.63c3.81,7.1,9,12.55,15.57,16.36,6.57,3.81,13.98,5.72,22.24,5.72s15.67-1.91,22.24-5.72Z"/>
      <path class="cls-2" d="m243.24,1031.98l-27.49-46.39h-20.49v46.39h-11.12v-111.05h33.36c12.39,0,21.79,2.97,28.2,8.9,6.41,5.93,9.61,13.72,9.61,23.35,0,8.05-2.3,14.91-6.91,20.58-4.61,5.67-11.41,9.35-20.42,11.04l28.6,47.19h-13.35Zm-47.98-55.29h22.4c8.68,0,15.22-2.12,19.62-6.35,4.39-4.24,6.59-9.96,6.59-17.16s-2.14-13.16-6.43-17.24c-4.29-4.08-10.94-6.12-19.94-6.12h-22.24v46.87Z"/>
      <path class="cls-2" d="m284.54,929.67v41.94h42.1v8.9h-42.1v42.58h46.87v8.9h-57.99v-111.21h57.99v8.9h-46.87Z"/>
      <path class="cls-2" d="m457.87,922.36v109.62h-11.12v-87.54l-39.08,87.54h-8.1l-39.08-87.22v87.22h-11.12v-109.62h11.76l42.42,95.01,42.42-95.01h11.92Z"/>
      <path class="cls-2" d="m546.37,920.45v111.53h-27.17v-111.53h27.17Z"/>
      <path class="cls-2" d="m642.9,974.07c-2.79,5.35-7.09,9.67-12.87,12.95-5.79,3.28-12.97,4.92-21.55,4.92h-15.86v40.04h-25.59v-111.53h41.46c8.38,0,15.46,1.54,21.25,4.61,5.79,3.07,10.13,7.31,13.02,12.71,2.89,5.4,4.34,11.6,4.34,18.59,0,6.46-1.4,12.37-4.19,17.71Zm-25.44-7.23c2.39-2.54,3.59-6.04,3.59-10.49s-1.2-7.94-3.59-10.49c-2.39-2.54-6.04-3.81-10.92-3.81h-13.92v28.6h13.92c4.89,0,8.53-1.27,10.92-3.81Z"/>
      <path class="cls-2" d="m675.69,1029.12c-6.46-2.65-11.63-6.57-15.49-11.76-3.87-5.19-5.91-11.44-6.12-18.75h28.92c.42,4.24,1.85,7.47,4.29,9.69,2.44,2.22,5.61,3.34,9.53,3.34s7.2-.98,9.53-2.94c2.33-1.96,3.5-4.58,3.5-7.86,0-2.75-.93-5.03-2.78-6.83-1.85-1.8-4.13-3.28-6.83-4.45-2.7-1.16-6.54-2.49-11.52-3.97-7.2-2.22-13.08-4.45-17.63-6.67-4.56-2.22-8.48-5.51-11.76-9.85-3.28-4.34-4.93-10.01-4.93-17,0-10.38,3.76-18.51,11.28-24.39,7.52-5.88,17.32-8.82,29.39-8.82s22.19,2.94,29.71,8.82c7.52,5.88,11.54,14.06,12.08,24.55h-29.39c-.21-3.81-1.51-6.75-3.89-8.82-2.38-2.07-5.54-3.1-9.45-3.1-3.28,0-5.93.9-7.94,2.7-2.01,1.8-3.02,4.4-3.02,7.79,0,3.6,1.69,6.41,5.08,8.42,3.39,2.01,8.68,4.18,15.89,6.51,7.2,2.44,13.05,4.77,17.56,6.99,4.5,2.22,8.39,5.46,11.68,9.69,3.28,4.24,4.92,9.69,4.92,16.36s-1.62,12.13-4.85,17.32c-3.23,5.19-7.92,9.32-14.06,12.39-6.14,3.07-13.4,4.61-21.77,4.61s-15.47-1.32-21.92-3.97Z"/>
      <path class="cls-2" d="m777.69,920.45v66.57c0,6.67,1.64,11.81,4.93,15.41,3.28,3.6,8.1,5.4,14.46,5.4s11.23-1.8,14.62-5.4c3.39-3.6,5.08-8.74,5.08-15.41v-66.57h27.17v66.57c0,9.96-2.12,18.38-6.36,25.26-4.24,6.89-9.93,12.07-17.08,15.57s-15.12,5.24-23.91,5.24-16.66-1.72-23.59-5.16c-6.94-3.44-12.42-8.63-16.44-15.57-4.03-6.94-6.04-15.38-6.04-25.34v-66.57h27.17Z"/>
      <path class="cls-2" d="m985.34,920.45v111.53h-27.17v-66.89l-24.94,66.89h-21.92l-25.1-67.05v67.05h-27.17v-111.53h32.09l31.3,77.21,30.98-77.21h31.93Z"/>
    </g>
    <g>
      <path class="cls-2" d="m146.79,1109.28c-2.06-.93-3.68-2.21-4.85-3.86-1.17-1.65-1.78-3.55-1.82-5.7h5.5c.19,1.89.96,3.49,2.33,4.8,1.36,1.3,3.31,1.96,5.84,1.96s4.35-.63,5.79-1.9c1.44-1.27,2.16-2.88,2.16-4.85,0-1.51-.42-2.74-1.25-3.69-.83-.95-1.87-1.66-3.12-2.16-1.25-.49-2.93-1.02-5.05-1.59-2.61-.68-4.7-1.36-6.27-2.04-1.57-.68-2.91-1.75-4.03-3.21-1.12-1.46-1.67-3.41-1.67-5.87,0-2.16.55-4.07,1.65-5.73,1.1-1.66,2.64-2.95,4.62-3.86,1.99-.91,4.26-1.36,6.84-1.36,3.71,0,6.74.93,9.11,2.78,2.36,1.85,3.7,4.31,4,7.38h-5.67c-.19-1.63-.97-3.02-2.35-4.17-1.38-1.15-3.24-1.73-5.59-1.73-2.16,0-3.91.57-5.28,1.7-1.36,1.13-2.04,2.74-2.04,4.82,0,1.44.41,2.61,1.22,3.52.81.91,1.82,1.6,3.01,2.07,1.19.47,2.87,1.01,5.02,1.62,2.61.72,4.71,1.43,6.3,2.13,1.59.7,2.95,1.78,4.09,3.23,1.13,1.46,1.7,3.43,1.7,5.93,0,1.93-.51,3.75-1.53,5.45-1.02,1.7-2.53,3.08-4.54,4.14-2.01,1.06-4.37,1.59-7.09,1.59s-4.95-.46-7.01-1.39Z"/>
      <path class="cls-2" d="m205.26,1106.3h13.84v3.97h-19.01v-39.55h5.16v35.58Z"/>
      <path class="cls-2" d="m258.03,1108.08c-3.03-1.72-5.42-4.12-7.18-7.21-1.76-3.08-2.64-6.55-2.64-10.41s.88-7.33,2.64-10.41c1.76-3.08,4.15-5.48,7.18-7.21,3.03-1.72,6.37-2.58,10.04-2.58s7.07.86,10.1,2.58c3.03,1.72,5.41,4.11,7.15,7.18,1.74,3.06,2.61,6.54,2.61,10.44s-.87,7.38-2.61,10.44c-1.74,3.06-4.12,5.46-7.15,7.18-3.03,1.72-6.39,2.58-10.1,2.58s-7.02-.86-10.04-2.58Zm17.5-4c2.21-1.29,3.95-3.1,5.22-5.45,1.27-2.34,1.9-5.07,1.9-8.17s-.63-5.83-1.9-8.2c-1.27-2.36-3.01-4.18-5.22-5.45-2.21-1.27-4.7-1.9-7.46-1.9s-5.25.63-7.46,1.9c-2.21,1.27-3.95,3.08-5.22,5.45-1.27,2.36-1.9,5.1-1.9,8.2s.63,5.83,1.9,8.17c1.27,2.35,3.01,4.16,5.22,5.45s4.7,1.93,7.46,1.93,5.25-.64,7.46-1.93Z"/>
      <path class="cls-2" d="m320.98,1080.05c1.76-3.08,4.15-5.48,7.18-7.21,3.03-1.72,6.37-2.58,10.04-2.58,4.2,0,7.92,1.04,11.15,3.12,3.23,2.08,5.59,5.01,7.06,8.79h-6.18c-1.1-2.31-2.69-4.09-4.77-5.36-2.08-1.27-4.5-1.9-7.26-1.9s-5.25.63-7.46,1.9c-2.21,1.27-3.95,3.08-5.22,5.45-1.27,2.36-1.9,5.1-1.9,8.2s.63,5.83,1.9,8.17c1.27,2.35,3.01,4.15,5.22,5.42,2.21,1.27,4.7,1.9,7.46,1.9,3.9,0,7.09-1.16,9.59-3.49,2.5-2.33,3.93-5.48,4.31-9.45h-15.77v-4.09h21.28v3.97c-.3,3.25-1.32,6.23-3.06,8.94-1.74,2.71-4.03,4.84-6.87,6.41-2.84,1.57-6,2.36-9.48,2.36-3.67,0-7.02-.86-10.04-2.58-3.03-1.72-5.42-4.11-7.18-7.18-1.76-3.06-2.64-6.53-2.64-10.38s.88-7.33,2.64-10.41Z"/>
      <path class="cls-2" d="m413.33,1101.47h-17.25l-3.18,8.8h-5.45l14.3-39.32h5.96l14.24,39.32h-5.45l-3.18-8.8Zm-1.42-4.03l-7.21-20.14-7.21,20.14h14.41Z"/>
      <path class="cls-2" d="m484.82,1110.27h-5.16l-20.77-31.49v31.49h-5.16v-39.61h5.16l20.77,31.43v-31.43h5.16v39.61Z"/>
      <path class="cls-2" d="m592.06,1070.72v39.55h-5.16v-18.04h-20.14v18.04h-5.16v-39.55h5.16v17.48h20.14v-17.48h5.16Z"/>
      <path class="cls-2" d="m631.5,1074.75v13.56h14.41v3.97h-14.41v13.9h16.12v4.08h-21.28v-39.61h21.28v4.08h-16.12Z"/>
      <path class="cls-2" d="m701.8,1110.27l-9.42-16.17h-6.24v16.17h-5.16v-39.55h12.77c2.99,0,5.51.51,7.58,1.53,2.06,1.02,3.6,2.4,4.62,4.14,1.02,1.74,1.53,3.73,1.53,5.96,0,2.72-.79,5.13-2.35,7.21-1.57,2.08-3.92,3.46-7.06,4.14l9.93,16.57h-6.18Zm-15.66-20.31h7.6c2.8,0,4.9-.69,6.3-2.07,1.4-1.38,2.1-3.22,2.1-5.53s-.68-4.24-2.04-5.56c-1.36-1.32-3.48-1.99-6.36-1.99h-7.6v15.15Z"/>
      <path class="cls-2" d="m746.17,1074.75v13.56h14.41v3.97h-14.41v13.9h16.12v4.08h-21.28v-39.61h21.28v4.08h-16.12Z"/>
    </g>
  </g>
</svg>